<mxfile host="Electron" agent="Mozilla/5.0 (Macintosh; Intel Mac OS X 10_15_7) AppleWebKit/537.36 (KHTML, like Gecko) draw.io/27.0.9 Chrome/134.0.6998.205 Electron/35.4.0 Safari/537.36" version="27.0.9">
  <diagram id="zRbqeLraV6NcUAKqtsca" name="Page-1">
    <mxGraphModel dx="814" dy="554" grid="1" gridSize="10" guides="1" tooltips="1" connect="1" arrows="1" fold="1" page="1" pageScale="1" pageWidth="827" pageHeight="1169" background="#ffffff" math="0" shadow="0">
      <root>
        <mxCell id="0" />
        <mxCell id="1" parent="0" />
        <mxCell id="Axhu6hIH_rqUG2sfCTC3-105" value="" style="endArrow=none;html=1;rounded=0;exitX=0;exitY=1;exitDx=0;exitDy=0;fillColor=#a0522d;strokeColor=#6D1F00;strokeWidth=3;" parent="1" edge="1">
          <mxGeometry width="50" height="50" relative="1" as="geometry">
            <mxPoint x="230" y="270" as="sourcePoint" />
            <mxPoint x="260" y="310" as="targetPoint" />
          </mxGeometry>
        </mxCell>
        <mxCell id="Axhu6hIH_rqUG2sfCTC3-106" value="" style="endArrow=none;html=1;rounded=0;fillColor=#a0522d;strokeColor=#6D1F00;entryX=0;entryY=1;entryDx=0;entryDy=0;strokeWidth=3;" parent="1" edge="1">
          <mxGeometry width="50" height="50" relative="1" as="geometry">
            <mxPoint x="260" y="310" as="sourcePoint" />
            <mxPoint x="350" y="270" as="targetPoint" />
          </mxGeometry>
        </mxCell>
        <mxCell id="Axhu6hIH_rqUG2sfCTC3-107" value="" style="endArrow=none;html=1;rounded=0;exitX=0;exitY=1;exitDx=0;exitDy=0;fillColor=#f0a30a;strokeColor=#BD7000;strokeWidth=3;" parent="1" edge="1">
          <mxGeometry width="50" height="50" relative="1" as="geometry">
            <mxPoint x="270" y="270" as="sourcePoint" />
            <mxPoint x="300" y="310" as="targetPoint" />
          </mxGeometry>
        </mxCell>
        <mxCell id="Axhu6hIH_rqUG2sfCTC3-108" value="" style="endArrow=none;html=1;rounded=0;fillColor=#f0a30a;strokeColor=#BD7000;entryX=0;entryY=1;entryDx=0;entryDy=0;strokeWidth=3;" parent="1" edge="1">
          <mxGeometry width="50" height="50" relative="1" as="geometry">
            <mxPoint x="300" y="310" as="sourcePoint" />
            <mxPoint x="390" y="270" as="targetPoint" />
          </mxGeometry>
        </mxCell>
        <mxCell id="Axhu6hIH_rqUG2sfCTC3-109" value="" style="endArrow=none;html=1;rounded=0;exitX=0;exitY=1;exitDx=0;exitDy=0;fillColor=#647687;strokeColor=#314354;strokeWidth=3;" parent="1" edge="1">
          <mxGeometry width="50" height="50" relative="1" as="geometry">
            <mxPoint x="310" y="270" as="sourcePoint" />
            <mxPoint x="340" y="310" as="targetPoint" />
          </mxGeometry>
        </mxCell>
        <mxCell id="Axhu6hIH_rqUG2sfCTC3-110" value="" style="endArrow=none;html=1;rounded=0;fillColor=#647687;strokeColor=#314354;entryX=0;entryY=1;entryDx=0;entryDy=0;strokeWidth=3;" parent="1" edge="1">
          <mxGeometry width="50" height="50" relative="1" as="geometry">
            <mxPoint x="340" y="310" as="sourcePoint" />
            <mxPoint x="430" y="270" as="targetPoint" />
          </mxGeometry>
        </mxCell>
        <mxCell id="Axhu6hIH_rqUG2sfCTC3-111" value="" style="endArrow=classic;html=1;rounded=0;strokeColor=#000000;fontColor=#FFFFFF;labelBackgroundColor=none;strokeWidth=2;" parent="1" edge="1">
          <mxGeometry width="50" height="50" relative="1" as="geometry">
            <mxPoint x="230" y="270" as="sourcePoint" />
            <mxPoint x="982.1621621621622" y="270" as="targetPoint" />
          </mxGeometry>
        </mxCell>
        <mxCell id="Axhu6hIH_rqUG2sfCTC3-112" value="&lt;font style=&quot;&quot; face=&quot;Times New Roman&quot;&gt;&lt;font style=&quot;font-size: 14px;&quot;&gt;&lt;b style=&quot;&quot;&gt;egress port&lt;/b&gt;&lt;br&gt;Credit-Based Shaping &lt;br&gt;+ Strict Priority Scheduling&lt;/font&gt;&lt;/font&gt;" style="text;html=1;align=right;verticalAlign=middle;resizable=0;points=[];autosize=1;strokeColor=none;fillColor=none;fontColor=#000000;" parent="1" vertex="1">
          <mxGeometry x="40" y="329" width="180" height="60" as="geometry" />
        </mxCell>
        <mxCell id="Axhu6hIH_rqUG2sfCTC3-113" value="&lt;b&gt;&lt;font face=&quot;Times New Roman&quot;&gt;&lt;font style=&quot;font-size: 14px;&quot;&gt;t&lt;/font&gt;&lt;/font&gt;&lt;/b&gt;" style="text;html=1;align=left;verticalAlign=middle;resizable=0;points=[];autosize=1;strokeColor=none;fillColor=none;fontColor=#000000;labelBackgroundColor=none;" parent="1" vertex="1">
          <mxGeometry x="980" y="140" width="30" height="30" as="geometry" />
        </mxCell>
        <mxCell id="Axhu6hIH_rqUG2sfCTC3-114" value="" style="endArrow=none;html=1;rounded=0;exitX=0;exitY=1;exitDx=0;exitDy=0;fillColor=#a0522d;strokeColor=#6D1F00;strokeWidth=3;" parent="1" edge="1">
          <mxGeometry width="50" height="50" relative="1" as="geometry">
            <mxPoint x="350" y="270" as="sourcePoint" />
            <mxPoint x="380" y="310" as="targetPoint" />
          </mxGeometry>
        </mxCell>
        <mxCell id="Axhu6hIH_rqUG2sfCTC3-115" value="" style="endArrow=none;html=1;rounded=0;fillColor=#a0522d;strokeColor=#6D1F00;entryX=0;entryY=1;entryDx=0;entryDy=0;strokeWidth=3;" parent="1" edge="1">
          <mxGeometry width="50" height="50" relative="1" as="geometry">
            <mxPoint x="380" y="310" as="sourcePoint" />
            <mxPoint x="470" y="270" as="targetPoint" />
          </mxGeometry>
        </mxCell>
        <mxCell id="Axhu6hIH_rqUG2sfCTC3-116" value="" style="endArrow=none;html=1;rounded=0;exitX=0;exitY=1;exitDx=0;exitDy=0;fillColor=#f0a30a;strokeColor=#BD7000;strokeWidth=3;" parent="1" edge="1">
          <mxGeometry width="50" height="50" relative="1" as="geometry">
            <mxPoint x="390" y="270" as="sourcePoint" />
            <mxPoint x="420" y="310" as="targetPoint" />
          </mxGeometry>
        </mxCell>
        <mxCell id="Axhu6hIH_rqUG2sfCTC3-117" value="" style="endArrow=none;html=1;rounded=0;fillColor=#f0a30a;strokeColor=#BD7000;entryX=0;entryY=1;entryDx=0;entryDy=0;strokeWidth=3;" parent="1" edge="1">
          <mxGeometry width="50" height="50" relative="1" as="geometry">
            <mxPoint x="420" y="310" as="sourcePoint" />
            <mxPoint x="510" y="270" as="targetPoint" />
          </mxGeometry>
        </mxCell>
        <mxCell id="Axhu6hIH_rqUG2sfCTC3-118" value="" style="endArrow=none;html=1;rounded=0;exitX=0;exitY=1;exitDx=0;exitDy=0;fillColor=#647687;strokeColor=#314354;strokeWidth=3;" parent="1" edge="1">
          <mxGeometry width="50" height="50" relative="1" as="geometry">
            <mxPoint x="430" y="270" as="sourcePoint" />
            <mxPoint x="460" y="310" as="targetPoint" />
          </mxGeometry>
        </mxCell>
        <mxCell id="Axhu6hIH_rqUG2sfCTC3-119" value="" style="endArrow=none;html=1;rounded=0;fillColor=#647687;strokeColor=#314354;entryX=0;entryY=1;entryDx=0;entryDy=0;strokeWidth=3;" parent="1" edge="1">
          <mxGeometry width="50" height="50" relative="1" as="geometry">
            <mxPoint x="460" y="310" as="sourcePoint" />
            <mxPoint x="550" y="270" as="targetPoint" />
          </mxGeometry>
        </mxCell>
        <mxCell id="Axhu6hIH_rqUG2sfCTC3-120" value="" style="endArrow=none;html=1;rounded=0;exitX=0;exitY=1;exitDx=0;exitDy=0;fillColor=#a0522d;strokeColor=#6D1F00;strokeWidth=3;" parent="1" edge="1">
          <mxGeometry width="50" height="50" relative="1" as="geometry">
            <mxPoint x="470" y="270" as="sourcePoint" />
            <mxPoint x="500" y="310" as="targetPoint" />
          </mxGeometry>
        </mxCell>
        <mxCell id="Axhu6hIH_rqUG2sfCTC3-121" value="" style="endArrow=none;html=1;rounded=0;fillColor=#a0522d;strokeColor=#6D1F00;entryX=0;entryY=1;entryDx=0;entryDy=0;strokeWidth=3;" parent="1" edge="1">
          <mxGeometry width="50" height="50" relative="1" as="geometry">
            <mxPoint x="500" y="310" as="sourcePoint" />
            <mxPoint x="590" y="270" as="targetPoint" />
          </mxGeometry>
        </mxCell>
        <mxCell id="Axhu6hIH_rqUG2sfCTC3-122" value="" style="endArrow=none;html=1;rounded=0;exitX=0;exitY=1;exitDx=0;exitDy=0;fillColor=#f0a30a;strokeColor=#BD7000;strokeWidth=3;" parent="1" edge="1">
          <mxGeometry width="50" height="50" relative="1" as="geometry">
            <mxPoint x="510" y="270" as="sourcePoint" />
            <mxPoint x="540" y="310" as="targetPoint" />
          </mxGeometry>
        </mxCell>
        <mxCell id="Axhu6hIH_rqUG2sfCTC3-123" value="" style="endArrow=none;html=1;rounded=0;fillColor=#f0a30a;strokeColor=#BD7000;entryX=0;entryY=1;entryDx=0;entryDy=0;strokeWidth=3;" parent="1" edge="1">
          <mxGeometry width="50" height="50" relative="1" as="geometry">
            <mxPoint x="540" y="310" as="sourcePoint" />
            <mxPoint x="630" y="270" as="targetPoint" />
          </mxGeometry>
        </mxCell>
        <mxCell id="Axhu6hIH_rqUG2sfCTC3-124" value="" style="endArrow=none;html=1;rounded=0;exitX=0;exitY=1;exitDx=0;exitDy=0;fillColor=#647687;strokeColor=#314354;strokeWidth=3;" parent="1" edge="1">
          <mxGeometry width="50" height="50" relative="1" as="geometry">
            <mxPoint x="550" y="270" as="sourcePoint" />
            <mxPoint x="580" y="310" as="targetPoint" />
          </mxGeometry>
        </mxCell>
        <mxCell id="Axhu6hIH_rqUG2sfCTC3-125" value="" style="endArrow=none;html=1;rounded=0;fillColor=#647687;strokeColor=#314354;entryX=0;entryY=1;entryDx=0;entryDy=0;strokeWidth=3;" parent="1" edge="1">
          <mxGeometry width="50" height="50" relative="1" as="geometry">
            <mxPoint x="580" y="310" as="sourcePoint" />
            <mxPoint x="670" y="270" as="targetPoint" />
          </mxGeometry>
        </mxCell>
        <mxCell id="Axhu6hIH_rqUG2sfCTC3-126" value="" style="endArrow=none;html=1;rounded=0;exitX=0;exitY=1;exitDx=0;exitDy=0;fillColor=#a0522d;strokeColor=#6D1F00;strokeWidth=3;" parent="1" edge="1">
          <mxGeometry width="50" height="50" relative="1" as="geometry">
            <mxPoint x="590" y="270" as="sourcePoint" />
            <mxPoint x="620" y="310" as="targetPoint" />
          </mxGeometry>
        </mxCell>
        <mxCell id="Axhu6hIH_rqUG2sfCTC3-127" value="" style="endArrow=none;html=1;rounded=0;fillColor=#a0522d;strokeColor=#6D1F00;entryX=0;entryY=1;entryDx=0;entryDy=0;strokeWidth=3;" parent="1" edge="1">
          <mxGeometry width="50" height="50" relative="1" as="geometry">
            <mxPoint x="620" y="310" as="sourcePoint" />
            <mxPoint x="710" y="270" as="targetPoint" />
          </mxGeometry>
        </mxCell>
        <mxCell id="Axhu6hIH_rqUG2sfCTC3-128" value="" style="endArrow=none;html=1;rounded=0;exitX=0;exitY=1;exitDx=0;exitDy=0;fillColor=#f0a30a;strokeColor=#BD7000;strokeWidth=3;" parent="1" edge="1">
          <mxGeometry width="50" height="50" relative="1" as="geometry">
            <mxPoint x="630" y="270" as="sourcePoint" />
            <mxPoint x="660" y="310" as="targetPoint" />
          </mxGeometry>
        </mxCell>
        <mxCell id="Axhu6hIH_rqUG2sfCTC3-129" value="" style="endArrow=none;html=1;rounded=0;fillColor=#f0a30a;strokeColor=#BD7000;entryX=0;entryY=1;entryDx=0;entryDy=0;strokeWidth=3;" parent="1" edge="1">
          <mxGeometry width="50" height="50" relative="1" as="geometry">
            <mxPoint x="660" y="310" as="sourcePoint" />
            <mxPoint x="750" y="270" as="targetPoint" />
          </mxGeometry>
        </mxCell>
        <mxCell id="Axhu6hIH_rqUG2sfCTC3-130" value="" style="endArrow=none;html=1;rounded=0;exitX=0;exitY=1;exitDx=0;exitDy=0;fillColor=#647687;strokeColor=#314354;strokeWidth=3;" parent="1" edge="1">
          <mxGeometry width="50" height="50" relative="1" as="geometry">
            <mxPoint x="670" y="270" as="sourcePoint" />
            <mxPoint x="700" y="310" as="targetPoint" />
          </mxGeometry>
        </mxCell>
        <mxCell id="Axhu6hIH_rqUG2sfCTC3-131" value="" style="endArrow=none;html=1;rounded=0;fillColor=#647687;strokeColor=#314354;entryX=0;entryY=1;entryDx=0;entryDy=0;strokeWidth=3;" parent="1" edge="1">
          <mxGeometry width="50" height="50" relative="1" as="geometry">
            <mxPoint x="700" y="310" as="sourcePoint" />
            <mxPoint x="790" y="270" as="targetPoint" />
          </mxGeometry>
        </mxCell>
        <mxCell id="Axhu6hIH_rqUG2sfCTC3-132" value="" style="endArrow=none;html=1;rounded=0;exitX=0;exitY=1;exitDx=0;exitDy=0;fillColor=#a0522d;strokeColor=#6D1F00;strokeWidth=3;" parent="1" edge="1">
          <mxGeometry width="50" height="50" relative="1" as="geometry">
            <mxPoint x="710" y="270" as="sourcePoint" />
            <mxPoint x="740" y="310" as="targetPoint" />
          </mxGeometry>
        </mxCell>
        <mxCell id="Axhu6hIH_rqUG2sfCTC3-133" value="" style="endArrow=none;html=1;rounded=0;fillColor=#a0522d;strokeColor=#6D1F00;entryX=0;entryY=1;entryDx=0;entryDy=0;strokeWidth=3;" parent="1" edge="1">
          <mxGeometry width="50" height="50" relative="1" as="geometry">
            <mxPoint x="740" y="310" as="sourcePoint" />
            <mxPoint x="830" y="270" as="targetPoint" />
          </mxGeometry>
        </mxCell>
        <mxCell id="Axhu6hIH_rqUG2sfCTC3-134" value="" style="endArrow=none;html=1;rounded=0;exitX=0;exitY=1;exitDx=0;exitDy=0;fillColor=#f0a30a;strokeColor=#BD7000;strokeWidth=3;" parent="1" edge="1">
          <mxGeometry width="50" height="50" relative="1" as="geometry">
            <mxPoint x="750" y="270" as="sourcePoint" />
            <mxPoint x="780" y="310" as="targetPoint" />
          </mxGeometry>
        </mxCell>
        <mxCell id="Axhu6hIH_rqUG2sfCTC3-135" value="" style="endArrow=none;html=1;rounded=0;fillColor=#f0a30a;strokeColor=#BD7000;entryX=0;entryY=1;entryDx=0;entryDy=0;strokeWidth=3;" parent="1" edge="1">
          <mxGeometry width="50" height="50" relative="1" as="geometry">
            <mxPoint x="780" y="310" as="sourcePoint" />
            <mxPoint x="870" y="270" as="targetPoint" />
          </mxGeometry>
        </mxCell>
        <mxCell id="Axhu6hIH_rqUG2sfCTC3-136" value="" style="endArrow=none;html=1;rounded=0;exitX=0;exitY=1;exitDx=0;exitDy=0;fillColor=#647687;strokeColor=#314354;strokeWidth=3;" parent="1" edge="1">
          <mxGeometry width="50" height="50" relative="1" as="geometry">
            <mxPoint x="790" y="270" as="sourcePoint" />
            <mxPoint x="820" y="310" as="targetPoint" />
          </mxGeometry>
        </mxCell>
        <mxCell id="Axhu6hIH_rqUG2sfCTC3-137" value="" style="endArrow=none;html=1;rounded=0;fillColor=#647687;strokeColor=#314354;entryX=0;entryY=1;entryDx=0;entryDy=0;strokeWidth=3;" parent="1" edge="1">
          <mxGeometry width="50" height="50" relative="1" as="geometry">
            <mxPoint x="820" y="310" as="sourcePoint" />
            <mxPoint x="910" y="270" as="targetPoint" />
          </mxGeometry>
        </mxCell>
        <mxCell id="Axhu6hIH_rqUG2sfCTC3-138" value="" style="endArrow=none;html=1;rounded=0;exitX=0;exitY=1;exitDx=0;exitDy=0;fillColor=#a0522d;strokeColor=#6D1F00;strokeWidth=3;" parent="1" edge="1">
          <mxGeometry width="50" height="50" relative="1" as="geometry">
            <mxPoint x="830" y="270" as="sourcePoint" />
            <mxPoint x="860" y="310" as="targetPoint" />
          </mxGeometry>
        </mxCell>
        <mxCell id="Axhu6hIH_rqUG2sfCTC3-139" value="" style="endArrow=none;html=1;rounded=0;fillColor=#a0522d;strokeColor=#6D1F00;entryX=0;entryY=1;entryDx=0;entryDy=0;strokeWidth=3;" parent="1" edge="1">
          <mxGeometry width="50" height="50" relative="1" as="geometry">
            <mxPoint x="860" y="310" as="sourcePoint" />
            <mxPoint x="950" y="270" as="targetPoint" />
          </mxGeometry>
        </mxCell>
        <mxCell id="Axhu6hIH_rqUG2sfCTC3-140" value="" style="endArrow=none;html=1;rounded=0;exitX=0;exitY=1;exitDx=0;exitDy=0;fillColor=#f0a30a;strokeColor=#BD7000;strokeWidth=3;" parent="1" edge="1">
          <mxGeometry width="50" height="50" relative="1" as="geometry">
            <mxPoint x="870" y="270" as="sourcePoint" />
            <mxPoint x="900" y="310" as="targetPoint" />
          </mxGeometry>
        </mxCell>
        <mxCell id="Axhu6hIH_rqUG2sfCTC3-141" value="" style="endArrow=none;html=1;rounded=0;fillColor=#f0a30a;strokeColor=#BD7000;entryX=0;entryY=1;entryDx=0;entryDy=0;strokeWidth=3;" parent="1" edge="1">
          <mxGeometry width="50" height="50" relative="1" as="geometry">
            <mxPoint x="900" y="310" as="sourcePoint" />
            <mxPoint x="990" y="270" as="targetPoint" />
          </mxGeometry>
        </mxCell>
        <mxCell id="Axhu6hIH_rqUG2sfCTC3-142" value="" style="endArrow=none;html=1;rounded=0;exitX=0;exitY=1;exitDx=0;exitDy=0;fillColor=#647687;strokeColor=#314354;strokeWidth=3;" parent="1" edge="1">
          <mxGeometry width="50" height="50" relative="1" as="geometry">
            <mxPoint x="910" y="270" as="sourcePoint" />
            <mxPoint x="940" y="310" as="targetPoint" />
          </mxGeometry>
        </mxCell>
        <mxCell id="Axhu6hIH_rqUG2sfCTC3-143" value="" style="endArrow=none;html=1;rounded=0;fillColor=#647687;strokeColor=#314354;entryX=0;entryY=1;entryDx=0;entryDy=0;strokeWidth=3;" parent="1" edge="1">
          <mxGeometry width="50" height="50" relative="1" as="geometry">
            <mxPoint x="940" y="310" as="sourcePoint" />
            <mxPoint x="1030" y="270" as="targetPoint" />
          </mxGeometry>
        </mxCell>
        <mxCell id="Axhu6hIH_rqUG2sfCTC3-144" value="" style="rounded=0;whiteSpace=wrap;html=1;fillColor=#FFB300;fontColor=#000000;strokeColor=#BD7000;" parent="1" vertex="1">
          <mxGeometry x="270" y="320" width="30" height="30" as="geometry" />
        </mxCell>
        <mxCell id="Axhu6hIH_rqUG2sfCTC3-145" value="" style="rounded=0;whiteSpace=wrap;html=1;fillColor=#647687;fontColor=#ffffff;strokeColor=#314354;" parent="1" vertex="1">
          <mxGeometry x="310" y="320" width="30" height="30" as="geometry" />
        </mxCell>
        <mxCell id="Axhu6hIH_rqUG2sfCTC3-146" value="" style="rounded=0;whiteSpace=wrap;html=1;fillColor=#a0522d;fontColor=#ffffff;strokeColor=#6D1F00;" parent="1" vertex="1">
          <mxGeometry x="230" y="320" width="30" height="30" as="geometry" />
        </mxCell>
        <mxCell id="Axhu6hIH_rqUG2sfCTC3-147" value="" style="endArrow=classic;html=1;rounded=0;strokeColor=#000000;fontColor=#FFFFFF;labelBackgroundColor=none;strokeWidth=2;" parent="1" edge="1">
          <mxGeometry width="50" height="50" relative="1" as="geometry">
            <mxPoint x="230" y="350" as="sourcePoint" />
            <mxPoint x="982.1621621621622" y="350" as="targetPoint" />
          </mxGeometry>
        </mxCell>
        <mxCell id="Axhu6hIH_rqUG2sfCTC3-148" value="" style="rounded=0;whiteSpace=wrap;html=1;fillColor=#FFB300;fontColor=#000000;strokeColor=#BD7000;" parent="1" vertex="1">
          <mxGeometry x="390" y="320" width="30" height="30" as="geometry" />
        </mxCell>
        <mxCell id="Axhu6hIH_rqUG2sfCTC3-149" value="" style="rounded=0;whiteSpace=wrap;html=1;fillColor=#647687;fontColor=#ffffff;strokeColor=#314354;" parent="1" vertex="1">
          <mxGeometry x="430" y="320" width="30" height="30" as="geometry" />
        </mxCell>
        <mxCell id="Axhu6hIH_rqUG2sfCTC3-150" value="" style="rounded=0;whiteSpace=wrap;html=1;fillColor=#a0522d;fontColor=#ffffff;strokeColor=#6D1F00;" parent="1" vertex="1">
          <mxGeometry x="350" y="320" width="30" height="30" as="geometry" />
        </mxCell>
        <mxCell id="Axhu6hIH_rqUG2sfCTC3-151" value="" style="rounded=0;whiteSpace=wrap;html=1;fillColor=#FFB300;fontColor=#000000;strokeColor=#BD7000;" parent="1" vertex="1">
          <mxGeometry x="510" y="320" width="30" height="30" as="geometry" />
        </mxCell>
        <mxCell id="Axhu6hIH_rqUG2sfCTC3-152" value="" style="rounded=0;whiteSpace=wrap;html=1;fillColor=#647687;fontColor=#ffffff;strokeColor=#314354;" parent="1" vertex="1">
          <mxGeometry x="550" y="320" width="30" height="30" as="geometry" />
        </mxCell>
        <mxCell id="Axhu6hIH_rqUG2sfCTC3-153" value="" style="rounded=0;whiteSpace=wrap;html=1;fillColor=#a0522d;fontColor=#ffffff;strokeColor=#6D1F00;" parent="1" vertex="1">
          <mxGeometry x="470" y="320" width="30" height="30" as="geometry" />
        </mxCell>
        <mxCell id="Axhu6hIH_rqUG2sfCTC3-154" value="" style="rounded=0;whiteSpace=wrap;html=1;fillColor=#FFB300;fontColor=#000000;strokeColor=#BD7000;" parent="1" vertex="1">
          <mxGeometry x="630" y="320" width="30" height="30" as="geometry" />
        </mxCell>
        <mxCell id="Axhu6hIH_rqUG2sfCTC3-155" value="" style="rounded=0;whiteSpace=wrap;html=1;fillColor=#647687;fontColor=#ffffff;strokeColor=#314354;" parent="1" vertex="1">
          <mxGeometry x="670" y="320" width="30" height="30" as="geometry" />
        </mxCell>
        <mxCell id="Axhu6hIH_rqUG2sfCTC3-156" value="" style="rounded=0;whiteSpace=wrap;html=1;fillColor=#a0522d;fontColor=#ffffff;strokeColor=#6D1F00;" parent="1" vertex="1">
          <mxGeometry x="590" y="320" width="30" height="30" as="geometry" />
        </mxCell>
        <mxCell id="Axhu6hIH_rqUG2sfCTC3-157" value="" style="rounded=0;whiteSpace=wrap;html=1;fillColor=#FFB300;fontColor=#000000;strokeColor=#BD7000;" parent="1" vertex="1">
          <mxGeometry x="750" y="320" width="30" height="30" as="geometry" />
        </mxCell>
        <mxCell id="Axhu6hIH_rqUG2sfCTC3-158" value="" style="rounded=0;whiteSpace=wrap;html=1;fillColor=#647687;fontColor=#ffffff;strokeColor=#314354;" parent="1" vertex="1">
          <mxGeometry x="790" y="320" width="30" height="30" as="geometry" />
        </mxCell>
        <mxCell id="Axhu6hIH_rqUG2sfCTC3-159" value="" style="rounded=0;whiteSpace=wrap;html=1;fillColor=#a0522d;fontColor=#ffffff;strokeColor=#6D1F00;" parent="1" vertex="1">
          <mxGeometry x="710" y="320" width="30" height="30" as="geometry" />
        </mxCell>
        <mxCell id="Axhu6hIH_rqUG2sfCTC3-160" value="" style="rounded=0;whiteSpace=wrap;html=1;fillColor=#FFB300;fontColor=#000000;strokeColor=#BD7000;" parent="1" vertex="1">
          <mxGeometry x="870" y="320" width="30" height="30" as="geometry" />
        </mxCell>
        <mxCell id="Axhu6hIH_rqUG2sfCTC3-161" value="" style="rounded=0;whiteSpace=wrap;html=1;fillColor=#647687;fontColor=#ffffff;strokeColor=#314354;" parent="1" vertex="1">
          <mxGeometry x="910" y="320" width="30" height="30" as="geometry" />
        </mxCell>
        <mxCell id="Axhu6hIH_rqUG2sfCTC3-162" value="" style="rounded=0;whiteSpace=wrap;html=1;fillColor=#a0522d;fontColor=#ffffff;strokeColor=#6D1F00;" parent="1" vertex="1">
          <mxGeometry x="830" y="320" width="30" height="30" as="geometry" />
        </mxCell>
        <mxCell id="Axhu6hIH_rqUG2sfCTC3-163" value="&lt;font face=&quot;Times New Roman&quot;&gt;&lt;b style=&quot;&quot;&gt;&lt;font style=&quot;font-size: 14px;&quot;&gt;&lt;font color=&quot;#6d1f00&quot;&gt;credit&lt;/font&gt;&lt;br&gt;&lt;font color=&quot;#bd7000&quot;&gt;credit&lt;br&gt;&lt;/font&gt;&lt;font color=&quot;#314354&quot;&gt;credit&lt;/font&gt;&lt;/font&gt;&lt;br&gt;&lt;/b&gt;&lt;/font&gt;" style="text;html=1;align=right;verticalAlign=middle;resizable=0;points=[];autosize=1;strokeColor=none;fillColor=none;" parent="1" vertex="1">
          <mxGeometry x="158" y="239" width="60" height="60" as="geometry" />
        </mxCell>
        <mxCell id="Axhu6hIH_rqUG2sfCTC3-164" value="" style="endArrow=none;html=1;rounded=0;fillColor=#a0522d;strokeColor=#6D1F00;strokeWidth=1;entryX=0;entryY=1;entryDx=0;entryDy=0;dashed=1;" parent="1" target="Axhu6hIH_rqUG2sfCTC3-146" edge="1">
          <mxGeometry width="50" height="50" relative="1" as="geometry">
            <mxPoint x="230" y="270" as="sourcePoint" />
            <mxPoint x="260" y="320" as="targetPoint" />
          </mxGeometry>
        </mxCell>
        <mxCell id="Axhu6hIH_rqUG2sfCTC3-165" value="" style="endArrow=none;html=1;rounded=0;fillColor=#a0522d;strokeColor=#bd7000;strokeWidth=1;entryX=0;entryY=1;entryDx=0;entryDy=0;dashed=1;" parent="1" edge="1">
          <mxGeometry width="50" height="50" relative="1" as="geometry">
            <mxPoint x="270" y="270" as="sourcePoint" />
            <mxPoint x="270" y="350" as="targetPoint" />
          </mxGeometry>
        </mxCell>
        <mxCell id="Axhu6hIH_rqUG2sfCTC3-166" value="" style="endArrow=none;html=1;rounded=0;fillColor=#a0522d;strokeColor=#314354;strokeWidth=1;entryX=0;entryY=1;entryDx=0;entryDy=0;dashed=1;" parent="1" edge="1">
          <mxGeometry width="50" height="50" relative="1" as="geometry">
            <mxPoint x="310" y="270" as="sourcePoint" />
            <mxPoint x="310" y="350" as="targetPoint" />
          </mxGeometry>
        </mxCell>
        <mxCell id="Axhu6hIH_rqUG2sfCTC3-167" value="" style="endArrow=none;html=1;rounded=0;fillColor=#a0522d;strokeColor=#6D1F00;strokeWidth=1;entryX=0;entryY=1;entryDx=0;entryDy=0;dashed=1;" parent="1" edge="1">
          <mxGeometry width="50" height="50" relative="1" as="geometry">
            <mxPoint x="349.72" y="270" as="sourcePoint" />
            <mxPoint x="349.72" y="350" as="targetPoint" />
          </mxGeometry>
        </mxCell>
        <mxCell id="Axhu6hIH_rqUG2sfCTC3-168" value="" style="endArrow=none;html=1;rounded=0;fillColor=#a0522d;strokeColor=#bd7000;strokeWidth=1;entryX=0;entryY=1;entryDx=0;entryDy=0;dashed=1;" parent="1" edge="1">
          <mxGeometry width="50" height="50" relative="1" as="geometry">
            <mxPoint x="389.72" y="270" as="sourcePoint" />
            <mxPoint x="389.72" y="350" as="targetPoint" />
          </mxGeometry>
        </mxCell>
        <mxCell id="Axhu6hIH_rqUG2sfCTC3-169" value="" style="endArrow=none;html=1;rounded=0;fillColor=#a0522d;strokeColor=#314354;strokeWidth=1;entryX=0;entryY=1;entryDx=0;entryDy=0;dashed=1;" parent="1" edge="1">
          <mxGeometry width="50" height="50" relative="1" as="geometry">
            <mxPoint x="429.72" y="270" as="sourcePoint" />
            <mxPoint x="429.72" y="350" as="targetPoint" />
          </mxGeometry>
        </mxCell>
        <mxCell id="Axhu6hIH_rqUG2sfCTC3-170" value="" style="endArrow=none;html=1;rounded=0;fillColor=#a0522d;strokeColor=#6D1F00;strokeWidth=1;entryX=0;entryY=1;entryDx=0;entryDy=0;dashed=1;" parent="1" edge="1">
          <mxGeometry width="50" height="50" relative="1" as="geometry">
            <mxPoint x="469.72" y="270" as="sourcePoint" />
            <mxPoint x="469.72" y="350" as="targetPoint" />
          </mxGeometry>
        </mxCell>
        <mxCell id="Axhu6hIH_rqUG2sfCTC3-171" value="" style="endArrow=none;html=1;rounded=0;fillColor=#a0522d;strokeColor=#bd7000;strokeWidth=1;entryX=0;entryY=1;entryDx=0;entryDy=0;dashed=1;" parent="1" edge="1">
          <mxGeometry width="50" height="50" relative="1" as="geometry">
            <mxPoint x="509.72" y="270" as="sourcePoint" />
            <mxPoint x="509.72" y="350" as="targetPoint" />
          </mxGeometry>
        </mxCell>
        <mxCell id="Axhu6hIH_rqUG2sfCTC3-172" value="" style="endArrow=none;html=1;rounded=0;fillColor=#a0522d;strokeColor=#314354;strokeWidth=1;entryX=0;entryY=1;entryDx=0;entryDy=0;dashed=1;" parent="1" edge="1">
          <mxGeometry width="50" height="50" relative="1" as="geometry">
            <mxPoint x="549.72" y="270" as="sourcePoint" />
            <mxPoint x="549.72" y="350" as="targetPoint" />
          </mxGeometry>
        </mxCell>
        <mxCell id="Axhu6hIH_rqUG2sfCTC3-173" value="" style="endArrow=none;html=1;rounded=0;fillColor=#a0522d;strokeColor=#6D1F00;strokeWidth=1;entryX=0;entryY=1;entryDx=0;entryDy=0;dashed=1;" parent="1" edge="1">
          <mxGeometry width="50" height="50" relative="1" as="geometry">
            <mxPoint x="590" y="270" as="sourcePoint" />
            <mxPoint x="590" y="350" as="targetPoint" />
          </mxGeometry>
        </mxCell>
        <mxCell id="Axhu6hIH_rqUG2sfCTC3-174" value="" style="endArrow=none;html=1;rounded=0;fillColor=#a0522d;strokeColor=#bd7000;strokeWidth=1;entryX=0;entryY=1;entryDx=0;entryDy=0;dashed=1;" parent="1" edge="1">
          <mxGeometry width="50" height="50" relative="1" as="geometry">
            <mxPoint x="630" y="270" as="sourcePoint" />
            <mxPoint x="630" y="350" as="targetPoint" />
          </mxGeometry>
        </mxCell>
        <mxCell id="Axhu6hIH_rqUG2sfCTC3-175" value="" style="endArrow=none;html=1;rounded=0;fillColor=#a0522d;strokeColor=#314354;strokeWidth=1;entryX=0;entryY=1;entryDx=0;entryDy=0;dashed=1;" parent="1" edge="1">
          <mxGeometry width="50" height="50" relative="1" as="geometry">
            <mxPoint x="670" y="270" as="sourcePoint" />
            <mxPoint x="670" y="350" as="targetPoint" />
          </mxGeometry>
        </mxCell>
        <mxCell id="Axhu6hIH_rqUG2sfCTC3-176" value="" style="endArrow=none;html=1;rounded=0;fillColor=#a0522d;strokeColor=#6D1F00;strokeWidth=1;entryX=0;entryY=1;entryDx=0;entryDy=0;dashed=1;" parent="1" edge="1">
          <mxGeometry width="50" height="50" relative="1" as="geometry">
            <mxPoint x="710" y="270" as="sourcePoint" />
            <mxPoint x="710" y="350" as="targetPoint" />
          </mxGeometry>
        </mxCell>
        <mxCell id="Axhu6hIH_rqUG2sfCTC3-177" value="" style="endArrow=none;html=1;rounded=0;fillColor=#a0522d;strokeColor=#bd7000;strokeWidth=1;entryX=0;entryY=1;entryDx=0;entryDy=0;dashed=1;" parent="1" edge="1">
          <mxGeometry width="50" height="50" relative="1" as="geometry">
            <mxPoint x="750" y="270" as="sourcePoint" />
            <mxPoint x="750" y="350" as="targetPoint" />
          </mxGeometry>
        </mxCell>
        <mxCell id="Axhu6hIH_rqUG2sfCTC3-178" value="" style="endArrow=none;html=1;rounded=0;fillColor=#a0522d;strokeColor=#314354;strokeWidth=1;entryX=0;entryY=1;entryDx=0;entryDy=0;dashed=1;" parent="1" edge="1">
          <mxGeometry width="50" height="50" relative="1" as="geometry">
            <mxPoint x="790" y="270" as="sourcePoint" />
            <mxPoint x="790" y="350" as="targetPoint" />
          </mxGeometry>
        </mxCell>
        <mxCell id="Axhu6hIH_rqUG2sfCTC3-179" value="" style="endArrow=none;html=1;rounded=0;fillColor=#a0522d;strokeColor=#6D1F00;strokeWidth=1;entryX=0;entryY=1;entryDx=0;entryDy=0;dashed=1;" parent="1" edge="1">
          <mxGeometry width="50" height="50" relative="1" as="geometry">
            <mxPoint x="830" y="270" as="sourcePoint" />
            <mxPoint x="830" y="350" as="targetPoint" />
          </mxGeometry>
        </mxCell>
        <mxCell id="Axhu6hIH_rqUG2sfCTC3-180" value="" style="endArrow=none;html=1;rounded=0;fillColor=#a0522d;strokeColor=#bd7000;strokeWidth=1;entryX=0;entryY=1;entryDx=0;entryDy=0;dashed=1;" parent="1" edge="1">
          <mxGeometry width="50" height="50" relative="1" as="geometry">
            <mxPoint x="870" y="270" as="sourcePoint" />
            <mxPoint x="870" y="350" as="targetPoint" />
          </mxGeometry>
        </mxCell>
        <mxCell id="Axhu6hIH_rqUG2sfCTC3-181" value="" style="endArrow=none;html=1;rounded=0;fillColor=#a0522d;strokeColor=#314354;strokeWidth=1;entryX=0;entryY=1;entryDx=0;entryDy=0;dashed=1;" parent="1" edge="1">
          <mxGeometry width="50" height="50" relative="1" as="geometry">
            <mxPoint x="910" y="270" as="sourcePoint" />
            <mxPoint x="910" y="350" as="targetPoint" />
          </mxGeometry>
        </mxCell>
        <mxCell id="Axhu6hIH_rqUG2sfCTC3-182" value="" style="rounded=0;whiteSpace=wrap;html=1;fillColor=#FFB300;fontColor=#000000;strokeColor=#BD7000;" parent="1" vertex="1">
          <mxGeometry x="240" y="120" width="30" height="30" as="geometry" />
        </mxCell>
        <mxCell id="Axhu6hIH_rqUG2sfCTC3-183" value="" style="rounded=0;whiteSpace=wrap;html=1;fillColor=#FFB300;fontColor=#000000;strokeColor=#BD7000;" parent="1" vertex="1">
          <mxGeometry x="360" y="120" width="30" height="30" as="geometry" />
        </mxCell>
        <mxCell id="Axhu6hIH_rqUG2sfCTC3-184" value="" style="rounded=0;whiteSpace=wrap;html=1;fillColor=#647687;fontColor=#ffffff;strokeColor=#314354;" parent="1" vertex="1">
          <mxGeometry x="250" y="160" width="30" height="30" as="geometry" />
        </mxCell>
        <mxCell id="Axhu6hIH_rqUG2sfCTC3-185" value="" style="rounded=0;whiteSpace=wrap;html=1;fillColor=#647687;fontColor=#ffffff;strokeColor=#314354;" parent="1" vertex="1">
          <mxGeometry x="370" y="160" width="30" height="30" as="geometry" />
        </mxCell>
        <mxCell id="Axhu6hIH_rqUG2sfCTC3-186" value="" style="rounded=0;whiteSpace=wrap;html=1;fillColor=#FFB300;fontColor=#000000;strokeColor=#BD7000;" parent="1" vertex="1">
          <mxGeometry x="480" y="120" width="30" height="30" as="geometry" />
        </mxCell>
        <mxCell id="Axhu6hIH_rqUG2sfCTC3-187" value="" style="rounded=0;whiteSpace=wrap;html=1;fillColor=#FFB300;fontColor=#000000;strokeColor=#BD7000;" parent="1" vertex="1">
          <mxGeometry x="600" y="120" width="30" height="30" as="geometry" />
        </mxCell>
        <mxCell id="Axhu6hIH_rqUG2sfCTC3-188" value="" style="rounded=0;whiteSpace=wrap;html=1;fillColor=#647687;fontColor=#ffffff;strokeColor=#314354;" parent="1" vertex="1">
          <mxGeometry x="490" y="160" width="30" height="30" as="geometry" />
        </mxCell>
        <mxCell id="Axhu6hIH_rqUG2sfCTC3-189" value="" style="rounded=0;whiteSpace=wrap;html=1;fillColor=#647687;fontColor=#ffffff;strokeColor=#314354;" parent="1" vertex="1">
          <mxGeometry x="610" y="160" width="30" height="30" as="geometry" />
        </mxCell>
        <mxCell id="Axhu6hIH_rqUG2sfCTC3-190" value="" style="rounded=0;whiteSpace=wrap;html=1;fillColor=#a0522d;fontColor=#ffffff;strokeColor=#6D1F00;" parent="1" vertex="1">
          <mxGeometry x="230" y="200" width="30" height="30" as="geometry" />
        </mxCell>
        <mxCell id="Axhu6hIH_rqUG2sfCTC3-191" value="" style="rounded=0;whiteSpace=wrap;html=1;fillColor=#a0522d;fontColor=#ffffff;strokeColor=#6D1F00;" parent="1" vertex="1">
          <mxGeometry x="350" y="200" width="30" height="30" as="geometry" />
        </mxCell>
        <mxCell id="Axhu6hIH_rqUG2sfCTC3-192" value="" style="rounded=0;whiteSpace=wrap;html=1;fillColor=#a0522d;fontColor=#ffffff;strokeColor=#6D1F00;" parent="1" vertex="1">
          <mxGeometry x="470" y="200" width="30" height="30" as="geometry" />
        </mxCell>
        <mxCell id="Axhu6hIH_rqUG2sfCTC3-193" value="" style="rounded=0;whiteSpace=wrap;html=1;fillColor=#a0522d;fontColor=#ffffff;strokeColor=#6D1F00;" parent="1" vertex="1">
          <mxGeometry x="590" y="200" width="30" height="30" as="geometry" />
        </mxCell>
        <mxCell id="Axhu6hIH_rqUG2sfCTC3-194" value="" style="rounded=0;whiteSpace=wrap;html=1;fillColor=#FFB300;fontColor=#000000;strokeColor=#BD7000;" parent="1" vertex="1">
          <mxGeometry x="720" y="120" width="30" height="30" as="geometry" />
        </mxCell>
        <mxCell id="Axhu6hIH_rqUG2sfCTC3-195" value="" style="rounded=0;whiteSpace=wrap;html=1;fillColor=#FFB300;fontColor=#000000;strokeColor=#BD7000;" parent="1" vertex="1">
          <mxGeometry x="840" y="120" width="30" height="30" as="geometry" />
        </mxCell>
        <mxCell id="Axhu6hIH_rqUG2sfCTC3-196" value="" style="rounded=0;whiteSpace=wrap;html=1;fillColor=#647687;fontColor=#ffffff;strokeColor=#314354;" parent="1" vertex="1">
          <mxGeometry x="730" y="160" width="30" height="30" as="geometry" />
        </mxCell>
        <mxCell id="Axhu6hIH_rqUG2sfCTC3-197" value="" style="rounded=0;whiteSpace=wrap;html=1;fillColor=#647687;fontColor=#ffffff;strokeColor=#314354;" parent="1" vertex="1">
          <mxGeometry x="850" y="160" width="30" height="30" as="geometry" />
        </mxCell>
        <mxCell id="Axhu6hIH_rqUG2sfCTC3-198" value="" style="rounded=0;whiteSpace=wrap;html=1;fillColor=#a0522d;fontColor=#ffffff;strokeColor=#6D1F00;" parent="1" vertex="1">
          <mxGeometry x="710" y="200" width="30" height="30" as="geometry" />
        </mxCell>
        <mxCell id="Axhu6hIH_rqUG2sfCTC3-199" value="" style="rounded=0;whiteSpace=wrap;html=1;fillColor=#a0522d;fontColor=#ffffff;strokeColor=#6D1F00;" parent="1" vertex="1">
          <mxGeometry x="830" y="200" width="30" height="30" as="geometry" />
        </mxCell>
        <mxCell id="Axhu6hIH_rqUG2sfCTC3-200" value="" style="endArrow=classic;html=1;rounded=0;strokeColor=#000000;fontColor=#FFFFFF;labelBackgroundColor=none;strokeWidth=2;" parent="1" edge="1">
          <mxGeometry width="50" height="50" relative="1" as="geometry">
            <mxPoint x="230" y="230" as="sourcePoint" />
            <mxPoint x="982.1621621621622" y="230" as="targetPoint" />
          </mxGeometry>
        </mxCell>
        <mxCell id="Axhu6hIH_rqUG2sfCTC3-201" value="" style="endArrow=classic;html=1;rounded=0;strokeColor=#000000;fontColor=#FFFFFF;labelBackgroundColor=none;strokeWidth=2;" parent="1" edge="1">
          <mxGeometry width="50" height="50" relative="1" as="geometry">
            <mxPoint x="230" y="190" as="sourcePoint" />
            <mxPoint x="982.1621621621622" y="190" as="targetPoint" />
          </mxGeometry>
        </mxCell>
        <mxCell id="Axhu6hIH_rqUG2sfCTC3-202" value="" style="endArrow=classic;html=1;rounded=0;strokeColor=#000000;fontColor=#FFFFFF;labelBackgroundColor=none;strokeWidth=2;" parent="1" edge="1">
          <mxGeometry width="50" height="50" relative="1" as="geometry">
            <mxPoint x="228.92000000000002" y="150" as="sourcePoint" />
            <mxPoint x="981.0821621621621" y="150" as="targetPoint" />
          </mxGeometry>
        </mxCell>
        <mxCell id="Axhu6hIH_rqUG2sfCTC3-203" value="&lt;b&gt;&lt;font face=&quot;Times New Roman&quot;&gt;&lt;font style=&quot;font-size: 14px;&quot;&gt;ingress port 1&lt;/font&gt;&lt;/font&gt;&lt;/b&gt;" style="text;html=1;align=right;verticalAlign=middle;resizable=0;points=[];autosize=1;strokeColor=none;fillColor=none;fontColor=#000000;" parent="1" vertex="1">
          <mxGeometry x="120" y="130" width="100" height="30" as="geometry" />
        </mxCell>
        <mxCell id="Axhu6hIH_rqUG2sfCTC3-204" value="&lt;b&gt;&lt;font face=&quot;Times New Roman&quot;&gt;&lt;font style=&quot;font-size: 14px;&quot;&gt;ingress port 2&lt;/font&gt;&lt;/font&gt;&lt;/b&gt;" style="text;html=1;align=right;verticalAlign=middle;resizable=0;points=[];autosize=1;strokeColor=none;fillColor=none;fontColor=#000000;" parent="1" vertex="1">
          <mxGeometry x="120" y="170" width="100" height="30" as="geometry" />
        </mxCell>
        <mxCell id="Axhu6hIH_rqUG2sfCTC3-205" value="&lt;b&gt;&lt;font face=&quot;Times New Roman&quot;&gt;&lt;font style=&quot;font-size: 14px;&quot;&gt;ingress port 3&lt;/font&gt;&lt;/font&gt;&lt;/b&gt;" style="text;html=1;align=right;verticalAlign=middle;resizable=0;points=[];autosize=1;strokeColor=none;fillColor=none;fontColor=#000000;" parent="1" vertex="1">
          <mxGeometry x="120" y="210" width="100" height="30" as="geometry" />
        </mxCell>
        <mxCell id="Axhu6hIH_rqUG2sfCTC3-206" value="&lt;b&gt;&lt;font face=&quot;Times New Roman&quot;&gt;&lt;font style=&quot;font-size: 14px;&quot;&gt;t&lt;/font&gt;&lt;/font&gt;&lt;/b&gt;" style="text;html=1;align=left;verticalAlign=middle;resizable=0;points=[];autosize=1;strokeColor=none;fillColor=none;fontColor=#000000;labelBackgroundColor=none;" parent="1" vertex="1">
          <mxGeometry x="980" y="180" width="30" height="30" as="geometry" />
        </mxCell>
        <mxCell id="Axhu6hIH_rqUG2sfCTC3-207" value="&lt;b&gt;&lt;font face=&quot;Times New Roman&quot;&gt;&lt;font style=&quot;font-size: 14px;&quot;&gt;t&lt;/font&gt;&lt;/font&gt;&lt;/b&gt;" style="text;html=1;align=left;verticalAlign=middle;resizable=0;points=[];autosize=1;strokeColor=none;fillColor=none;fontColor=#000000;labelBackgroundColor=none;" parent="1" vertex="1">
          <mxGeometry x="980" y="220" width="30" height="30" as="geometry" />
        </mxCell>
        <mxCell id="Axhu6hIH_rqUG2sfCTC3-208" value="&lt;b&gt;&lt;font face=&quot;Times New Roman&quot;&gt;&lt;font style=&quot;font-size: 14px;&quot;&gt;t&lt;/font&gt;&lt;/font&gt;&lt;/b&gt;" style="text;html=1;align=left;verticalAlign=middle;resizable=0;points=[];autosize=1;strokeColor=none;fillColor=none;fontColor=#000000;labelBackgroundColor=none;" parent="1" vertex="1">
          <mxGeometry x="980" y="260" width="30" height="30" as="geometry" />
        </mxCell>
        <mxCell id="Axhu6hIH_rqUG2sfCTC3-209" value="&lt;b&gt;&lt;font face=&quot;Times New Roman&quot;&gt;&lt;font style=&quot;font-size: 14px;&quot;&gt;t&lt;/font&gt;&lt;/font&gt;&lt;/b&gt;" style="text;html=1;align=left;verticalAlign=middle;resizable=0;points=[];autosize=1;strokeColor=none;fillColor=none;fontColor=#000000;labelBackgroundColor=none;" parent="1" vertex="1">
          <mxGeometry x="980" y="340" width="30" height="30" as="geometry" />
        </mxCell>
        <mxCell id="Axhu6hIH_rqUG2sfCTC3-210" value="&lt;b&gt;&lt;font style=&quot;font-size: 16px;&quot;&gt;Credit-Based Shaping + Strict Priority Scheduling&lt;/font&gt;&lt;/b&gt;" style="text;html=1;align=center;verticalAlign=middle;resizable=0;points=[];autosize=1;strokeColor=none;fillColor=none;fontColor=#000000;" parent="1" vertex="1">
          <mxGeometry x="375" y="77" width="400" height="30" as="geometry" />
        </mxCell>
      </root>
    </mxGraphModel>
  </diagram>
</mxfile>
